HIERARCHY
ROOT Hips
{
	OFFSET 0.00000 0.00000 0.00000
	CHANNELS 6 Xposition Yposition Zposition Yrotation Zrotation Xrotation 
	JOINT Lumbar
	{
		OFFSET 0 0 0
		CHANNELS 3 Zrotation Xrotation Yrotation
		JOINT Neck
		{
			OFFSET 0.00 0.2701 0.00
			CHANNELS 3 Zrotation Xrotation Yrotation
			End Site
			{
				OFFSET 0.00 0.1379 0.00
			}
		}
		JOINT RightShoulder
		{
			OFFSET 0.0119 0.2289 0.1181
			CHANNELS 3 Zrotation Xrotation Yrotation
			JOINT RightElbow
			{
				OFFSET 0.00 -0.1475 0.00
				CHANNELS 2 Zrotation Yrotation
				JOINT RightWrist
				{
					OFFSET 0.00 -0.1605 0.00
					CHANNELS 2 Zrotation Xrotation
					End Site
					{
						OFFSET 0.0040 -0.1068 0.0006
					}
				}
			}
		}
		JOINT LeftShoulder
		{
			OFFSET 0.0119 0.2289 -0.1181
			CHANNELS 3 Zrotation Xrotation Yrotation
			JOINT LeftElbow
			{
				OFFSET 0.00 -0.1475 0.00
				CHANNELS 2 Zrotation Yrotation
				JOINT LeftWrist
				{
					OFFSET 0.00 -0.1605 0.00
					CHANNELS 2 Zrotation Xrotation
					End Site
					{
						OFFSET 0.0040 -0.1068 -0.0006
					}
				}
			}
		}
	}
	JOINT RightHip
	{
		OFFSET 0.0316 -0.0424 0.0458
		CHANNELS 3 Zrotation Xrotation Yrotation
		JOINT RightKnee
		{
			OFFSET 0.00 -0.2438 0.00
			CHANNELS 1 Zrotation
			JOINT RightAnkle
			{
				OFFSET 0.00 -0.2449 0.00
				CHANNELS 3 Zrotation Xrotation Yrotation
				End Site
				{
					OFFSET 0.1237 -0.0542 0.0051
				}
			}
		}
	}
	JOINT LeftHip
	{
		OFFSET 0.0316 -0.0424 -0.0458
		CHANNELS 3 Zrotation Xrotation Yrotation
		JOINT LeftKnee
		{
			OFFSET 0.00 -0.2438 0.00
			CHANNELS 1 Zrotation
			JOINT LeftAnkle
			{
				OFFSET 0.00 -0.2449 0.00
				CHANNELS 3 Zrotation Xrotation Yrotation
				End Site
				{
					OFFSET 0.1237 -0.0542 -0.0051
				}
			}
		}
	}
}
MOTION
Frames: 24
Frame Time: 0.02
0.61193 -0.45365 -0.2536 -52.1546 28.15396 -28.18763 19.8029 5.58851 6.54989 -61.35162 34.56351 -2.11993 18.49086 -59.89868 -2.75058 31.71609 114.56882 -44.29622 -6.95776 -62.56697 -16.21462 87.14683 53.39646 -75.8419 -75.22916 21.88523 123.29356 -3.83353 34.2071 -139.18665 -13.50641 1.77655 -1.64095 118.38395 11.65128 3.48798 -73.96515 -13.21676 4.60411 4.85595
0.61227 -0.45361 -0.25323 -51.82476 28.04348 -28.445 19.90784 5.58529 5.95984 -61.82138 34.37885 -2.11993 8.5707 -60.43297 -10.51077 28.35503 113.40727 -43.1342 -6.83633 -62.56697 -16.21462 87.14683 52.73476 -75.91592 -75.22916 21.88522 123.33396 -4.35254 34.34572 -139.30165 -13.5165 1.75695 -1.65121 118.45942 11.57516 3.74677 -74.18329 -13.20762 4.60317 4.85433
0.61243 -0.45365 -0.25283 -51.36616 27.94568 -28.78901 19.96046 5.49007 5.21727 -62.26134 34.35956 -2.11993 -2.87434 -59.55232 -18.34717 25.29385 111.8486 -41.65673 -6.6899 -62.56697 -16.21462 87.14683 51.91851 -75.97622 -75.22917 21.88523 123.33896 -4.9806 34.48038 -139.4222 -13.53546 1.76544 -1.64755 118.45034 11.50861 4.13013 -74.36181 -13.19108 4.60193 4.85196
0.61266 -0.45367 -0.25245 -50.91148 27.90753 -29.11669 19.95569 5.44542 4.52827 -62.69957 34.22413 -2.11993 -13.45975 -59.23355 -25.86877 22.16187 110.4312 -40.31573 -6.5562 -62.56697 -16.21462 87.14683 51.16382 -76.04257 -75.22916 21.88522 123.30086 -5.6164 34.60933 -139.5428 -13.56616 1.81726 -1.62224 118.39411 11.41619 4.43597 -74.56275 -13.18028 4.60082 4.85011
0.61294 -0.45363 -0.25205 -50.6771 27.60169 -29.35136 20.27961 5.3664 3.9072 -63.20232 34.25261 -2.11993 -24.8178 -59.23297 -34.54684 18.72681 108.98234 -38.8724 -6.41463 -62.56697 -16.21462 87.14683 50.45009 -76.10925 -75.22917 21.88521 123.50464 -6.02062 34.77303 -139.65318 -13.53388 1.64692 -1.70763 118.68869 11.40859 4.82502 -74.74892 -13.16054 4.59968 4.84756
0.61308 -0.45372 -0.25169 -49.96772 27.84709 -29.79222 19.92225 5.33767 3.11034 -63.56375 33.97865 -2.11993 -34.88879 -58.24438 -40.89318 16.00015 107.61957 -37.62254 -6.29565 -62.56697 -16.21462 87.14683 49.61403 -76.17213 -75.22917 21.88521 123.20789 -6.91659 34.8616 -139.78551 -13.63068 1.92768 -1.5684 118.24671 11.23469 5.07381 -74.95379 -13.15688 4.59857 4.84624
0.61286 -0.45412 -0.25146 -47.84971 29.68309 -30.85935 17.57154 5.44966 1.83398 -63.54006 32.87653 -2.11993 -41.19646 -54.85094 -40.15828 15.22291 106.09009 -36.92348 -6.10008 -62.56697 -16.21461 87.14683 48.46145 -76.22829 -75.22916 21.8852 121.43378 -9.29531 34.75326 -139.98205 -14.1186 3.61548 -0.72776 115.66922 10.52644 4.88629 -75.23414 -13.20381 4.59739 4.84866
0.6125 -0.45463 -0.25127 -45.28293 32.05716 -32.11543 14.56337 5.61769 0.39082 -63.37552 31.45792 -2.11993 -46.11827 -50.51662 -37.17308 15.14879 104.76348 -36.45771 -5.95001 -62.56697 -16.21461 87.14683 47.19354 -76.28102 -75.22916 21.8852 119.17823 -12.13497 34.56868 -140.19953 -14.73053 5.73272 0.32642 112.37889 9.66313 4.55745 -75.53153 -13.26624 4.5963 4.85231
0.6122 -0.45509 -0.25107 -43.00423 34.14116 -33.2361 11.9349 5.77417 -0.95553 -63.27688 30.15432 -2.11993 -51.5591 -46.63497 -35.63988 14.70275 103.71087 -35.9449 -5.87731 -62.56697 -16.21461 87.14683 45.98816 -76.33524 -75.22916 21.8852 117.20849 -14.66791 34.41065 -140.40413 -15.25975 7.53305 1.2226 109.49135 8.91955 4.30565 -75.81162 -13.31857 4.59533 4.8553
0.61193 -0.45553 -0.25086 -40.36143 36.42892 -34.57482 8.95167 5.87269 -2.39422 -63.16931 28.97569 -2.11993 -57.52067 -42.60957 -32.35191 14.45284 101.14809 -35.17625 -5.4049 -62.56697 -16.2146 87.14683 44.73392 -76.38963 -75.22916 21.88516 114.94667 -17.62524 34.28112 -140.62314 -15.89502 9.81616 2.36116 106.25643 7.97192 4.00314 -76.13125 -13.38355 4.59367 4.85871
0.61156 -0.45605 -0.25067 -38.3777 38.40607 -35.49567 6.56605 6.10151 -3.68021 -63.04717 27.46229 -2.11993 -62.04994 -38.66372 -32.11485 14.00138 101.71885 -34.9923 -5.75739 -62.56697 -16.21461 87.14683 43.55715 -76.4426 -75.22916 21.88521 113.18932 -19.79399 34.08116 -140.81704 -16.34566 11.2357 3.0648 103.59144 7.40786 3.77221 -76.37242 -13.42598 4.59346 4.86152
0.61101 -0.45682 -0.2505 -38.27177 39.52005 -35.28363 5.86143 6.71933 -4.48569 -62.92002 25.07883 -2.11993 -62.93783 -35.31031 -41.44313 12.43874 111.47085 -36.44316 -8.53795 -62.56697 -16.21462 87.14684 42.6139 -76.49628 -75.2292 21.88551 112.85137 -19.78984 33.64129 -140.93683 -16.19328 9.80058 2.33991 102.54334 7.97875 3.76125 -76.40274 -13.40227 4.59735 4.86245
0.61035 -0.45767 -0.25034 -38.8514 40.28512 -34.63443 5.79857 7.45919 -5.13417 -62.78284 22.37395 -2.11993 -62.42832 -32.05507 -53.81074 10.71331 124.26598 -38.46203 -12.11741 -62.56698 -16.21464 87.14685 41.7552 -76.54803 -75.22924 21.88588 113.05057 -18.96064 33.14242 -141.03089 -15.86024 7.53667 1.19654 102.11326 8.93331 3.82734 -76.35474 -13.3554 4.60263 4.86271
0.6097 -0.45846 -0.25017 -39.15636 41.11963 -34.13719 5.53627 8.11501 -5.86584 -62.65024 19.82925 -2.11993 -62.56818 -28.66221 -64.3969 9.31917 135.28869 -40.17207 -15.22488 -62.56698 -16.21466 87.14686 40.86388 -76.59829 -75.22927 21.88619 113.06953 -18.42284 32.71601 -141.13602 -15.65393 5.90778 0.36737 101.49319 9.68814 3.86751 -76.33259 -13.31923 4.60727 4.86326
0.60921 -0.45932 -0.25005 -39.30443 42.32501 -33.83194 4.89012 8.89177 -6.55421 -62.51361 17.20977 -2.11993 -62.60296 -25.60751 -76.58619 6.88692 147.95397 -42.10372 -18.79226 -62.56699 -16.21468 87.14687 39.94294 -76.65843 -75.22932 21.8866 112.82005 -18.2255 32.10535 -141.24309 -15.2728 3.25605 -0.95301 100.4854 10.54712 3.8707 -76.34031 -13.28285 4.61214 4.86397
0.60837 -0.46008 -0.24981 -39.92969 42.6984 -33.0354 5.16878 9.4469 -7.29234 -62.38357 14.67918 -2.11993 -62.53922 -21.91027 -86.19756 6.53959 157.92864 -43.70606 -21.59277 -62.56699 -16.21469 87.14688 39.10652 -76.69755 -75.22934 21.88683 113.24091 -17.15273 31.85149 -141.34151 -15.19969 2.4659 -1.38371 100.41511 11.2792 3.96318 -76.28185 -13.24124 4.61662 4.86407
0.60662 -0.46049 -0.24924 -41.86841 40.59076 -30.85628 8.16016 9.34188 -8.21126 -62.28594 12.42865 -2.11994 -62.57796 -16.19781 -87.86877 12.23727 159.63756 -44.25828 -22.06401 -62.56699 -16.21469 87.14686 38.47508 -76.67922 -75.22931 21.88651 115.58329 -13.55089 32.71969 -141.40685 -16.12317 7.60125 1.01888 103.01784 11.59384 4.35041 -75.93337 -13.19129 4.6214 4.86356
0.60453 -0.46079 -0.24854 -44.23833 37.70136 -28.21911 12.00884 9.0122 -9.18252 -62.19399 10.2888 -2.11994 -62.56649 -9.88083 -86.86639 19.98719 158.55039 -44.46009 -21.73937 -62.56698 -16.21457 87.14685 37.92907 -76.63973 -75.22925 21.886 118.55007 -9.1493 33.92815 -141.46702 -17.34541 14.5376 4.28364 106.50735 11.7629 4.81244 -75.54502 -13.13723 4.62526 4.86222
0.60257 -0.46116 -0.24789 -46.30228 35.34869 -25.88107 15.25548 8.79781 -10.12742 -62.09224 8.1283 -2.11994 -62.56343 -3.98759 -87.15084 26.63348 158.8016 -44.82056 -21.7887 -62.56698 -16.21467 87.14683 37.34802 -76.60991 -75.22921 21.88559 121.09641 -5.32148 34.89894 -141.53977 -18.36067 20.2529 6.96685 109.43376 11.98229 5.1977 -75.25712 -13.08408 4.62859 4.86072
0.60068 -0.46146 -0.24727 -48.84254 32.23467 -23.15432 19.40279 8.53426 -11.08341 -62.01979 5.82984 -2.11994 -62.57157 2.5325 -87.23764 34.00346 158.87089 -45.19766 -21.81144 -62.56697 -16.21459 87.14682 36.74869 -76.58001 -75.22915 21.88511 124.22338 -0.59128 36.21164 -141.56898 -19.66135 27.59883 10.41749 113.03672 12.28341 5.76853 -74.61687 -13.03216 4.63659 4.86169
0.59858 -0.46187 -0.24654 -50.49897 30.50452 -21.12097 21.89225 8.31533 -12.02374 -61.88874 3.85097 -2.11994 -62.56283 7.89099 -87.06079 40.34664 158.61853 -45.45677 -21.69347 -62.56697 -16.21419 87.1468 36.21311 -76.54504 -75.22911 21.88473 126.30093 2.45625 36.902 -141.6873 -20.45212 32.0374 12.50385 115.45881 12.37274 5.96665 -74.70465 -12.97953 4.63382 4.85706
0.59592 -0.46267 -0.24553 -49.47938 32.96712 -21.2288 19.39552 8.2975 -12.96816 -61.58709 2.71543 -2.11994 -62.5282 9.89671 -86.80701 43.42565 158.11702 -45.41176 -21.34797 -62.56697 -16.21532 87.1468 35.77216 -76.50366 -75.2291 21.88464 125.16447 0.50498 35.7207 -142.05913 -19.66564 27.57633 10.40754 114.17841 11.92714 5.14134 -76.79282 -12.90443 4.60843 4.83957
0.59307 -0.46356 -0.2444 -47.57589 36.81787 -22.03087 15.23486 8.32707 -13.88436 -61.22791 1.90185 -2.11994 -62.48389 10.71188 -86.3657 45.38632 157.37983 -45.27031 -20.88991 -62.56697 -16.2135 87.1468 35.39986 -76.45778 -75.2291 21.88465 122.97707 -3.14282 33.91531 -142.51979 -18.37472 20.21264 6.94907 111.7163 11.26826 3.93304 -79.62004 -12.83287 4.57088 4.81606
0.59033 -0.46436 -0.24332 -46.15942 39.9162 -22.44254 11.96276 8.31976 -14.77507 -60.89977 0.95017 -2.11994 -62.44571 12.07144 -85.9971 47.81322 156.76668 -45.21064 -20.50229 -62.56697 -16.21424 87.1468 35.03973 -76.41196 -75.2291 21.88462 121.37682 -5.9144 32.44105 -142.93584 -17.37848 14.4633 4.24999 109.94157 10.69647 2.88449 -82.12109 -12.77391 4.53444 4.79376
